<svg width="16" height="16" viewBox="0 0 16 16" fill="none" xmlns="http://www.w3.org/2000/svg">
    <path d="M11 2C11.5523 2 12 2.44772 12 3V9H4V6H6C7.10457 6 8 5.10457 8 4V2H11Z" fill="#2F2936"/>
    <path d="M7 4C7 4.06893 6.99277 4.13617 6.97949 4.20117C6.88625 4.65686 6.48325 5 6 5H4.41406L7 2.41406V4Z"
          fill="#2F2936"/>
    <path fill-rule="evenodd" clip-rule="evenodd"
          d="M11 1C12.1046 1 13 1.89543 13 3V9H12V3C12 2.44772 11.5523 2 11 2H8V4C8 5.10457 7.10457 6 6 6H4V9H3V5.41406C3.00004 5.1489 3.10547 4.89453 3.29297 4.70703L6.70703 1.29297C6.89453 1.10547 7.1489 1.00004 7.41406 1H11ZM4.41406 5H6C6.55228 5 7 4.55228 7 4V2.41406L4.41406 5Z"
          fill="#B589EC"/>
    <path fill-rule="evenodd" clip-rule="evenodd"
          d="M13.082 10.0137C13.4811 10.0137 13.8288 10.0901 14.124 10.2432C14.4246 10.3962 14.6563 10.6129 14.8203 10.8916C14.9843 11.1649 15.0664 11.4876 15.0664 11.8594C15.0663 12.2253 14.9818 12.5475 14.8125 12.8262C14.6485 13.1049 14.4191 13.3216 14.124 13.4746C13.8288 13.6277 13.4811 13.7041 13.082 13.7041H12.1143V16H11.0898V10.0137H13.082ZM12.1143 12.7773H13.082C13.3663 12.7773 13.5932 12.6953 13.7627 12.5312C13.9375 12.3619 14.0253 12.138 14.0254 11.8594C14.0254 11.5751 13.9376 11.3505 13.7627 11.1865C13.5932 11.0226 13.3662 10.9404 13.082 10.9404H12.1143V12.7773Z"
          fill="#CED0D6"/>
    <path fill-rule="evenodd" clip-rule="evenodd"
          d="m 8.3892,10.014 c 0.3991,0 0.7468,0.0764 1.042,0.2295 0.3006,0.153 0.5323,0.3697 0.6963,0.6484 0.164,0.2733 0.2461,0.596 0.2461,0.9678 -10e-5,0.3659 -0.0846,0.6881 -0.2539,0.9668 -0.164,0.2787 -0.3934,0.4954 -0.6885,0.6484 -0.2952,0.1531 -0.6429,0.2295 -1.042,0.2295 H 7.4215 v 2.2959 H 6.397 V 10.014 Z m -0.9677,2.7636 h 0.9677 c 0.2843,0 0.5112,-0.082 0.6807,-0.2461 0.1748,-0.1693 0.2626,-0.3932 0.2627,-0.6718 0,-0.2843 -0.0878,-0.5089 -0.2627,-0.6729 C 8.9004,11.0229 8.6734,10.9407 8.3892,10.9407 H 7.4215 Z"
          fill="#CED0D6"/>
    <path d="M 5.29463,10.9651 H 2.57978 v 1.5997 h 2.50098 v 0.9511 H 2.59639 v 2.4844 H 1.571 V 10.014 h 3.72363 z"
          fill="#CED0D6"/>
</svg>
